<svg aria-hidden="true" style="position: absolute; width: 0; height: 0; overflow: hidden;" version="1.1"
    xmlns="http://www.w3.org/2000/svg" xmlns:xlink="http://www.w3.org/1999/xlink">
    <defs>
        <symbol id="icon-select-object" viewBox="0 0 52 52">
            <path stroke="#d4d4d4" stroke-width="2.5" fill="none"
                d="M 12 18 L 26 11 L 40 18 L 40 35 L 26 43 L 12 35 L 12 18 M 12 18 L 26 26 L 40 18 M 26 26 L 26 43" />
            <path stroke="#ffffff" stroke-width="3.5" fill="none"
                d="M 6 24 v -9 l 6 -4 M 46 24 v -9 l -6 -4 M 6 31 v 8 l 6 4 M 46 31 v 8 l -6 4" />
        </symbol>
        <symbol id="icon-select-point" viewBox="0 0 52 52">
            <path stroke="#d4d4d4" stroke-width="2.5" fill="none"
                d="M 12 18 L 26 11 L 40 18 L 40 35 L 26 43 L 12 35 L 12 18" />
            <circle cx="26" cy="26" r="3.5" fill="#fff" stroke="none" />
        </symbol>
        <symbol id="icon-select-edge" viewBox="0 0 52 52">
            <path stroke="#d4d4d4" stroke-width="2.5" fill="none"
                d="M 21 40 L 12 35 L 12 18 L 26 11 L 40 18 L 40 35 L 31 40" />
            <rect x="24" y="23" width="4" height="21" fill="#fff" stroke="none" />
        </symbol>
        <symbol id="icon-select-face" viewBox="0 0 52 52">
            <path stroke="#d4d4d4" stroke-width="2.5" fill="none" d="M 23 41 L 12 35 L 12 18 L 26 11 L 35 15" />
            <path stroke="none" fill="#ffffff" d="M 26 24 L 40 17 L 40 36 L 26 44" />
        </symbol>

        <symbol id="icon-shading-wireframe-xray" viewBox="0 0 52 52">
            <path stroke="#d4d4d4" stroke-width="1.5" fill="none" d="M 23 12 L 23 30 M 12 37 L 23 30 L 40 37" />
            <path stroke="#ffffff" stroke-width="2.5" fill="none"
                d="M 12 18 L 23 13 L 41 18 L 40 37 L 29 45 L 12 37 Z M 12 18 L 29 24 L 41 18 M 29 24 L 29 43" />
        </symbol>
        <symbol id="icon-shading-wireframe" viewBox="0 0 52 52">
            <path stroke="#ffffff" stroke-width="2.5" fill="none"
                d="M 12 18 L 23 13 L 41 18 L 41 37 L 29 45 L 12 37 Z M 12 18 L 29 24 L 41 18 M 29 24 L 29 43" />
        </symbol>
        <symbol id="icon-shading-solid-xray" viewBox="0 0 52 52">
            <!-- front right -->
            <path stroke-linecap="round" stroke="#a9a9a9" stroke-width="2.5" fill="#a9a9a9"
                d="M 29 24 L 41 18 L 41 37 L 29 45 Z" />
            <!-- top -->
            <path stroke-linecap="round" stroke="#d4d4d4" stroke-width="2.5" fill="#d4d4d4"
                d="M 12 18 L 23 13 L 40 18 L 29 24 Z" />
            <!-- front left -->
            <path stroke-linecap="round" stroke="#ffffff" stroke-width="2.5" fill="#ffffff"
                d="M 12 18 L 29 24 L 29 45 L 12 37 Z" />
            <!-- wireframe back -->
            <path stroke="#808080" stroke-width="1.5" fill="none" d="M 23 12 L 23 30 M 12 37 L 23 30 L 40 37" />
            <!-- wireframe front -->
            <path stroke="#ffffff" stroke-width="2.5" fill="none"
                d="M 12 18 L 23 13 L 41 18 L 40 37 L 29 45 L 12 37 Z M 12 18 L 29 24 L 41 18 M 29 24 L 29 43" />
        </symbol>
        <symbol id="icon-shading-solid" viewBox="0 0 52 52">
            <!-- front right -->
            <path stroke-linecap="round" stroke="#a9a9a9" stroke-width="2.5" fill="#a9a9a9"
                d="M 29 24 L 41 18 L 41 37 L 29 45 Z" />
            <!-- top -->
            <path stroke-linecap="round" stroke="#d4d4d4" stroke-width="2.5" fill="#d4d4d4"
                d="M 12 18 L 23 13 L 40 18 L 29 24 Z" />
            <!-- front left -->
            <path stroke-linecap="round" stroke="#ffffff" stroke-width="2.5" fill="#ffffff"
                d="M 12 18 L 29 24 L 29 45 L 12 37 Z" />
            <!-- white outline -->
            <!-- <path stroke="#ffffff" stroke-width="2.5" fill="none"
                d="M 12 18 L 23 13 L 41 18 L 41 37 L 29 45 L 12 37 Z M 12 18 L 29 24 L 41 18 M 29 24 L 29 43" /> -->
        </symbol>
        <symbol id="icon-shading-textured" viewBox="0 0 52 52">
            <!-- front right -->
            <path stroke-linecap="round" stroke="#a9a9a9" stroke-width="2.5" fill="#a9a9a9"
                d="M 29 24 L 41 18 L 41 37 L 29 45 Z" />
            <!-- front left -->
            <path stroke-linecap="round" stroke="#ffffff" stroke-width="2.5" fill="#ffffff"
                d="M 12 18 L 29 24 L 29 45 L 12 37 Z" />
            <!-- top -->
            <path stroke="#d4d4d4" stroke-width="2.5" fill="#d4d4d4" d="M 12 18 L 23 13 L 40 18 L 29 24 Z" />
            <path stroke="none" fill="#d40000" d="M 10 17.5 L 17 14 L 26.5 17 L 19 21 Z" />
            <path stroke="none" fill="#d40000" d="M 26 17 L 33 14 L 44 17.5 L 37 21 Z" />
            <!-- front right  -->
            <path stroke="none" fill="#a90000" d="M 29 35 L 37 31 L 37 41 L 29 46.5 Z" />
            <path stroke="none" fill="#a90000" d="M 37 31 L 42 27.5 L 42 19 L 37 22 Z" />
            <!-- front left -->
            <path stroke="none" fill="#ff0000" d="M 11 17.5 L 19 21 L 19 32 L 11 29" />
            <path stroke="none" fill="#ff0000" d="M 19 31 L 29.5 35 L 29.5 46.5 L 19 41.5" />
        </symbol>
    </defs>
</svg>
