# Blender 5.1.0
# www.blender.org
o dodecahedron
v -0.577350 0.577350 0.577350
v 0.934172 0.000000 -0.356822
v 0.934172 0.000000 0.356822
v -0.934172 0.000000 -0.356822
v -0.934172 0.000000 0.356822
v 0.000000 0.356822 -0.934172
v 0.000000 -0.356822 -0.934172
v 0.356822 -0.934172 0.000000
v -0.356822 -0.934172 0.000000
v 0.000000 -0.356822 0.934172
v 0.000000 0.356822 0.934172
v 0.356822 0.934172 0.000000
v -0.356822 0.934172 0.000000
v 0.577350 -0.577350 -0.577350
v 0.577350 0.577350 -0.577350
v -0.577350 -0.577350 -0.577350
v -0.577350 0.577350 -0.577350
v 0.577350 -0.577350 0.577350
v 0.577350 0.577350 0.577350
v -0.577350 -0.577350 0.577350
s 0
f 19 3 2 15 12
f 13 17 4 5 1
f 13 1 11 19 12
f 20 5 4 16 9
f 9 16 7 14 8
f 20 9 8 18 10
f 10 18 3 19 11
f 8 14 2 3 18
f 7 16 4 17 6
f 6 15 2 14 7
f 11 1 5 20 10
f 12 15 6 17 13
